<svg width="48" height="48" viewBox="0 0 48 48" fill="none" xmlns="http://www.w3.org/2000/svg">
<g clip-path="url(#clip0_39_7)">
<rect width="48" height="48" fill="white"/>
<ellipse cx="24" cy="-1.5" rx="62" ry="36.5" fill="#13E15F"/>
<path d="M16 6.07128L15.6676 5.04968L15.3403 4C15.2642 4.02299 7.84515 6.50546 8.00247 15L10.1592 14.9617C10.0323 8.11702 15.7564 6.153 16 6.07128Z" fill="black"/>
<path d="M17.6485 8.09719L17.3051 7C15.6999 7.5858 14.3203 8.67763 13.3673 10.1165C12.4143 11.5554 11.9376 13.2663 12.0066 15L14.2724 14.9567C14.2105 13.7173 14.5386 12.4902 15.2089 11.4535C15.8793 10.4167 16.8569 9.62446 18 9.19167L17.6485 8.09719Z" fill="black"/>
<path d="M28.9987 31.7747C29.0036 31.8042 28.9924 31.8338 28.9659 31.8616C28.9394 31.8893 28.8982 31.9146 28.8448 31.9358C28.7915 31.9571 28.7272 31.9737 28.6562 31.9847C28.5852 31.9958 28.509 32.0009 28.4325 31.9999C27.1754 31.9999 25.9184 31.9999 24.6614 31.9999H19.6557C19.1937 31.9999 18.9791 31.9209 19.0016 31.7399C19.0384 31.4413 19.0854 31.1442 19.1794 30.8471C19.2318 30.6635 19.3213 30.4818 19.4472 30.3035C19.7565 29.8602 20.3547 29.4549 21.1846 29.1263C21.2761 29.0867 21.3887 29.0551 21.5146 29.0337C21.6404 29.0123 21.7767 29.0016 21.9143 29.0023C22.5929 29.0023 23.2694 29.0023 23.9582 29.0023C24.647 29.0023 25.3665 29.0023 26.0717 29.0023C26.2691 28.9927 26.4682 29.0137 26.6256 29.0607C27.1325 29.2355 27.5524 29.4446 27.8643 29.6778C28.7125 30.2214 29.0232 31.5527 28.9987 31.7747Z" fill="black"/>
<path d="M16.5342 24.148C16.5937 23.366 16.501 22.5808 16.2601 21.8255C16.1365 21.4181 16.1319 20.9904 16.2468 20.5811C16.4808 19.5843 16.2913 18.6263 16.1041 17.6431C15.9169 16.66 16.015 15.6903 16.142 14.7226C16.2156 14.171 16.064 13.6001 16.3649 13.0601C16.581 12.6512 16.9491 12.3172 17.4101 12.1118C19.037 11.3376 20.8355 11.2718 22.6117 11.0802C23.821 10.966 25.0415 10.9738 26.2488 11.1035C27.9091 11.2583 29.5784 11.4905 31.0203 12.3286C31.2592 12.4674 31.4584 12.652 31.6025 12.868C31.7466 13.084 31.8318 13.3259 31.8516 13.5749C31.986 14.9031 32.0292 16.237 31.9808 17.5696C31.9722 17.7612 31.9355 17.9511 31.8716 18.1347C31.6253 18.8281 31.5915 19.5652 31.7736 20.2733C31.9399 20.8866 31.9106 21.5276 31.6889 22.1274C31.4147 22.8968 31.3468 23.7104 31.4905 24.506C31.5864 25.1428 31.5775 25.7892 31.2677 26.3505C30.9111 26.9872 30.8732 27.6743 30.7172 28.3304C30.4208 29.5748 29.6207 30.2503 28.2657 30.5735C26.928 30.879 25.548 31.0217 24.1651 30.9973C22.5649 30.9877 21.0116 30.8967 19.4849 30.4167C18.0854 29.9851 17.3232 29.2207 17.2251 27.922C17.2079 27.4719 17.0859 27.0294 16.8663 26.6214C16.425 25.8647 16.5432 25.0557 16.5342 24.148Z" fill="black"/>
<mask id="path-6-outside-1_39_7" maskUnits="userSpaceOnUse" x="17" y="37" width="14" height="8" fill="black">
<rect fill="white" x="17" y="37" width="14" height="8"/>
<path d="M18.1239 44V43.1136L20.195 41.196C20.3711 41.0256 20.5188 40.8722 20.6381 40.7358C20.7594 40.5994 20.8512 40.4659 20.9137 40.3352C20.9762 40.2027 21.0075 40.0597 21.0075 39.9062C21.0075 39.7358 20.9686 39.589 20.891 39.4659C20.8133 39.3409 20.7073 39.2453 20.5728 39.179C20.4383 39.1108 20.2859 39.0767 20.1154 39.0767C19.9374 39.0767 19.7821 39.1127 19.6495 39.1847C19.5169 39.2566 19.4147 39.3598 19.3427 39.4943C19.2707 39.6288 19.2347 39.7888 19.2347 39.9744H18.0671C18.0671 39.5937 18.1533 39.2633 18.3256 38.983C18.498 38.7027 18.7395 38.4858 19.0501 38.3324C19.3607 38.179 19.7186 38.1023 20.1239 38.1023C20.5406 38.1023 20.9033 38.1761 21.212 38.3239C21.5226 38.4697 21.7641 38.6723 21.9364 38.9318C22.1088 39.1913 22.195 39.4886 22.195 39.8239C22.195 40.0436 22.1514 40.2604 22.0643 40.4744C21.979 40.6884 21.8266 40.9261 21.6069 41.1875C21.3872 41.447 21.0775 41.7585 20.6779 42.1222L19.8285 42.9545V42.9943H22.2717V44H18.1239ZM23.8817 44.0739C23.6942 44.0739 23.5333 44.0076 23.3988 43.875C23.2662 43.7405 23.1999 43.5795 23.1999 43.392C23.1999 43.2064 23.2662 43.0473 23.3988 42.9148C23.5333 42.7822 23.6942 42.7159 23.8817 42.7159C24.0636 42.7159 24.2227 42.7822 24.359 42.9148C24.4954 43.0473 24.5636 43.2064 24.5636 43.392C24.5636 43.517 24.5314 43.6316 24.467 43.7358C24.4045 43.8381 24.3221 43.9205 24.2198 43.983C24.1175 44.0436 24.0049 44.0739 23.8817 44.0739ZM27.5927 44.1278C27.104 44.1259 26.6836 44.0057 26.3313 43.767C25.9809 43.5284 25.7111 43.1828 25.5217 42.7301C25.3342 42.2775 25.2414 41.733 25.2433 41.0966C25.2433 40.4621 25.337 39.9214 25.5245 39.4744C25.7139 39.0275 25.9838 38.6875 26.3342 38.4545C26.6864 38.2197 27.1059 38.1023 27.5927 38.1023C28.0794 38.1023 28.498 38.2197 28.8484 38.4545C29.2006 38.6894 29.4715 39.0303 29.6609 39.4773C29.8503 39.9223 29.944 40.4621 29.9421 41.0966C29.9421 41.7348 29.8474 42.2803 29.658 42.733C29.4705 43.1856 29.2016 43.5312 28.8512 43.7699C28.5008 44.0085 28.0813 44.1278 27.5927 44.1278ZM27.5927 43.108C27.926 43.108 28.1921 42.9403 28.391 42.6051C28.5898 42.2699 28.6883 41.767 28.6864 41.0966C28.6864 40.6553 28.641 40.2879 28.5501 39.9943C28.4611 39.7008 28.3342 39.4801 28.1694 39.3324C28.0065 39.1847 27.8143 39.1108 27.5927 39.1108C27.2612 39.1108 26.9961 39.2765 26.7972 39.608C26.5984 39.9394 26.498 40.4356 26.4961 41.0966C26.4961 41.5436 26.5406 41.9167 26.6296 42.2159C26.7205 42.5133 26.8484 42.7367 27.0131 42.8864C27.1779 43.0341 27.3711 43.108 27.5927 43.108Z"/>
</mask>
<path d="M18.1239 44V43.1136L20.195 41.196C20.3711 41.0256 20.5188 40.8722 20.6381 40.7358C20.7594 40.5994 20.8512 40.4659 20.9137 40.3352C20.9762 40.2027 21.0075 40.0597 21.0075 39.9062C21.0075 39.7358 20.9686 39.589 20.891 39.4659C20.8133 39.3409 20.7073 39.2453 20.5728 39.179C20.4383 39.1108 20.2859 39.0767 20.1154 39.0767C19.9374 39.0767 19.7821 39.1127 19.6495 39.1847C19.5169 39.2566 19.4147 39.3598 19.3427 39.4943C19.2707 39.6288 19.2347 39.7888 19.2347 39.9744H18.0671C18.0671 39.5937 18.1533 39.2633 18.3256 38.983C18.498 38.7027 18.7395 38.4858 19.0501 38.3324C19.3607 38.179 19.7186 38.1023 20.1239 38.1023C20.5406 38.1023 20.9033 38.1761 21.212 38.3239C21.5226 38.4697 21.7641 38.6723 21.9364 38.9318C22.1088 39.1913 22.195 39.4886 22.195 39.8239C22.195 40.0436 22.1514 40.2604 22.0643 40.4744C21.979 40.6884 21.8266 40.9261 21.6069 41.1875C21.3872 41.447 21.0775 41.7585 20.6779 42.1222L19.8285 42.9545V42.9943H22.2717V44H18.1239ZM23.8817 44.0739C23.6942 44.0739 23.5333 44.0076 23.3988 43.875C23.2662 43.7405 23.1999 43.5795 23.1999 43.392C23.1999 43.2064 23.2662 43.0473 23.3988 42.9148C23.5333 42.7822 23.6942 42.7159 23.8817 42.7159C24.0636 42.7159 24.2227 42.7822 24.359 42.9148C24.4954 43.0473 24.5636 43.2064 24.5636 43.392C24.5636 43.517 24.5314 43.6316 24.467 43.7358C24.4045 43.8381 24.3221 43.9205 24.2198 43.983C24.1175 44.0436 24.0049 44.0739 23.8817 44.0739ZM27.5927 44.1278C27.104 44.1259 26.6836 44.0057 26.3313 43.767C25.9809 43.5284 25.7111 43.1828 25.5217 42.7301C25.3342 42.2775 25.2414 41.733 25.2433 41.0966C25.2433 40.4621 25.337 39.9214 25.5245 39.4744C25.7139 39.0275 25.9838 38.6875 26.3342 38.4545C26.6864 38.2197 27.1059 38.1023 27.5927 38.1023C28.0794 38.1023 28.498 38.2197 28.8484 38.4545C29.2006 38.6894 29.4715 39.0303 29.6609 39.4773C29.8503 39.9223 29.944 40.4621 29.9421 41.0966C29.9421 41.7348 29.8474 42.2803 29.658 42.733C29.4705 43.1856 29.2016 43.5312 28.8512 43.7699C28.5008 44.0085 28.0813 44.1278 27.5927 44.1278ZM27.5927 43.108C27.926 43.108 28.1921 42.9403 28.391 42.6051C28.5898 42.2699 28.6883 41.767 28.6864 41.0966C28.6864 40.6553 28.641 40.2879 28.5501 39.9943C28.4611 39.7008 28.3342 39.4801 28.1694 39.3324C28.0065 39.1847 27.8143 39.1108 27.5927 39.1108C27.2612 39.1108 26.9961 39.2765 26.7972 39.608C26.5984 39.9394 26.498 40.4356 26.4961 41.0966C26.4961 41.5436 26.5406 41.9167 26.6296 42.2159C26.7205 42.5133 26.8484 42.7367 27.0131 42.8864C27.1779 43.0341 27.3711 43.108 27.5927 43.108Z" fill="black"/>
<path d="M18.1239 44H17.8239V44.3H18.1239V44ZM18.1239 43.1136L17.9201 42.8935L17.8239 42.9826V43.1136H18.1239ZM20.195 41.196L20.3988 41.4162L20.4036 41.4116L20.195 41.196ZM20.6381 40.7358L20.4139 40.5365L20.4124 40.5382L20.6381 40.7358ZM20.9137 40.3352L21.1844 40.4647L21.1851 40.4632L20.9137 40.3352ZM20.891 39.4659L20.6361 39.6242L20.6372 39.626L20.891 39.4659ZM20.5728 39.179L20.4371 39.4466L20.4402 39.4481L20.5728 39.179ZM19.3427 39.4943L19.6072 39.6359L19.6072 39.6359L19.3427 39.4943ZM19.2347 39.9744V40.2744H19.5347V39.9744H19.2347ZM18.0671 39.9744H17.7671V40.2744H18.0671V39.9744ZM18.3256 38.983L18.5812 39.1401L18.5812 39.1401L18.3256 38.983ZM19.0501 38.3324L18.9172 38.0634L18.9172 38.0634L19.0501 38.3324ZM21.212 38.3239L21.0825 38.5945L21.0845 38.5954L21.212 38.3239ZM21.9364 38.9318L21.6865 39.0978L21.6865 39.0978L21.9364 38.9318ZM22.0643 40.4744L21.7864 40.3613L21.7856 40.3634L22.0643 40.4744ZM21.6069 41.1875L21.8358 41.3814L21.8365 41.3805L21.6069 41.1875ZM20.6779 42.1222L20.4759 41.9001L20.4679 41.9079L20.6779 42.1222ZM19.8285 42.9545L19.6185 42.7403L19.5285 42.8285V42.9545H19.8285ZM19.8285 42.9943H19.5285V43.2943H19.8285V42.9943ZM22.2717 42.9943H22.5717V42.6943H22.2717V42.9943ZM22.2717 44V44.3H22.5717V44H22.2717ZM18.4239 44V43.1136H17.8239V44H18.4239ZM18.3278 43.3338L20.3988 41.4162L19.9911 40.9759L17.9201 42.8935L18.3278 43.3338ZM20.4036 41.4116C20.5838 41.2372 20.7376 41.0777 20.8639 40.9333L20.4124 40.5382C20.3 40.6666 20.1584 40.8139 19.9863 40.9804L20.4036 41.4116ZM20.8624 40.9351C20.9976 40.7829 21.1071 40.6263 21.1843 40.4647L20.6431 40.2058C20.5954 40.3056 20.5211 40.4159 20.4139 40.5365L20.8624 40.9351ZM21.1851 40.4632C21.2673 40.2887 21.3075 40.1018 21.3075 39.9062H20.7075C20.7075 40.0175 20.6851 40.1166 20.6423 40.2073L21.1851 40.4632ZM21.3075 39.9062C21.3075 39.689 21.2575 39.4846 21.1447 39.3059L20.6372 39.626C20.6798 39.6934 20.7075 39.7826 20.7075 39.9062H21.3075ZM21.1458 39.3076C21.038 39.1341 20.8892 39.0005 20.7054 38.9099L20.4402 39.4481C20.5253 39.4901 20.5887 39.5478 20.6361 39.6242L21.1458 39.3076ZM20.7085 38.9114C20.5267 38.8193 20.3268 38.7767 20.1154 38.7767V39.3767C20.2449 39.3767 20.3499 39.4023 20.4371 39.4465L20.7085 38.9114ZM20.1154 38.7767C19.8964 38.7767 19.6902 38.8212 19.5064 38.921L19.7926 39.4483C19.874 39.4042 19.9784 39.3767 20.1154 39.3767V38.7767ZM19.5064 38.921C19.3217 39.0213 19.1775 39.1672 19.0782 39.3528L19.6072 39.6359C19.6518 39.5525 19.7122 39.492 19.7926 39.4483L19.5064 38.921ZM19.0782 39.3528C18.9784 39.5393 18.9347 39.75 18.9347 39.9744H19.5347C19.5347 39.8276 19.5631 39.7183 19.6072 39.6359L19.0782 39.3528ZM19.2347 39.6744H18.0671V40.2744H19.2347V39.6744ZM18.3671 39.9744C18.3671 39.6404 18.4422 39.3661 18.5812 39.1401L18.0701 38.8258C17.8644 39.1604 17.7671 39.5471 17.7671 39.9744H18.3671ZM18.5812 39.1401C18.7224 38.9105 18.9201 38.7312 19.1829 38.6014L18.9172 38.0634C18.5588 38.2404 18.2736 38.4948 18.0701 38.8258L18.5812 39.1401ZM19.1829 38.6014C19.4457 38.4716 19.7569 38.4023 20.1239 38.4023V37.8023C19.6804 37.8023 19.2756 37.8864 18.9172 38.0634L19.1829 38.6014ZM20.1239 38.4023C20.5054 38.4023 20.8221 38.4698 21.0825 38.5945L21.3415 38.0533C20.9845 37.8824 20.5758 37.8023 20.1239 37.8023V38.4023ZM21.0845 38.5954C21.3506 38.7204 21.5476 38.8886 21.6865 39.0978L22.1863 38.7658C21.9806 38.4561 21.6946 38.219 21.3395 38.0523L21.0845 38.5954ZM21.6865 39.0978C21.8237 39.3043 21.895 39.543 21.895 39.8239H22.495C22.495 39.4343 22.3939 39.0783 22.1863 38.7658L21.6865 39.0978ZM21.895 39.8239C21.895 40.0028 21.8597 40.1813 21.7864 40.3613L22.3421 40.5875C22.4431 40.3395 22.495 40.0843 22.495 39.8239H21.895ZM21.7856 40.3634C21.7164 40.537 21.5853 40.747 21.3772 40.9945L21.8365 41.3805C22.0679 41.1053 22.2417 40.8399 22.343 40.5854L21.7856 40.3634ZM21.3779 40.9936C21.17 41.2392 20.8709 41.5409 20.476 41.9003L20.8798 42.344C21.2842 41.9761 21.6043 41.6548 21.8358 41.3814L21.3779 40.9936ZM20.4679 41.9079L19.6185 42.7403L20.0385 43.1688L20.8879 42.3364L20.4679 41.9079ZM19.5285 42.9545V42.9943H20.1285V42.9545H19.5285ZM19.8285 43.2943H22.2717V42.6943H19.8285V43.2943ZM21.9717 42.9943V44H22.5717V42.9943H21.9717ZM22.2717 43.7H18.1239V44.3H22.2717V43.7ZM23.3988 43.875L23.1851 44.0856L23.1882 44.0886L23.3988 43.875ZM23.3988 42.9148L23.1882 42.7011L23.1867 42.7026L23.3988 42.9148ZM24.359 42.9148L24.1499 43.1299L24.1499 43.1299L24.359 42.9148ZM24.467 43.7358L24.2118 43.578L24.211 43.5794L24.467 43.7358ZM24.2198 43.983L24.3728 44.2411L24.3763 44.2389L24.2198 43.983ZM23.8817 43.7739C23.7737 43.7739 23.6882 43.739 23.6094 43.6614L23.1882 44.0886C23.3783 44.2761 23.6148 44.3739 23.8817 44.3739V43.7739ZM23.6124 43.6644C23.5347 43.5856 23.4999 43.5001 23.4999 43.392H22.8999C22.8999 43.659 22.9977 43.8955 23.1852 44.0856L23.6124 43.6644ZM23.4999 43.392C23.4999 43.2869 23.534 43.2039 23.6109 43.1269L23.1867 42.7026C22.9985 42.8908 22.8999 43.126 22.8999 43.392H23.4999ZM23.6094 43.1284C23.6882 43.0507 23.7737 43.0159 23.8817 43.0159V42.4159C23.6148 42.4159 23.3783 42.5137 23.1882 42.7011L23.6094 43.1284ZM23.8817 43.0159C23.9816 43.0159 24.0667 43.049 24.1499 43.1299L24.5681 42.6997C24.3786 42.5154 24.1456 42.4159 23.8817 42.4159V43.0159ZM24.1499 43.1299C24.2298 43.2075 24.2636 43.2897 24.2636 43.392H24.8636C24.8636 43.1232 24.761 42.8872 24.5681 42.6997L24.1499 43.1299ZM24.2636 43.392C24.2636 43.4625 24.2463 43.5223 24.2118 43.578L24.7222 43.8935C24.8165 43.741 24.8636 43.5716 24.8636 43.392H24.2636ZM24.211 43.5794C24.1733 43.641 24.125 43.6893 24.0634 43.727L24.3763 44.2389C24.5191 44.1516 24.6356 44.0351 24.723 43.8922L24.211 43.5794ZM24.0669 43.7249C24.0126 43.757 23.953 43.7739 23.8817 43.7739V44.3739C24.0567 44.3739 24.2225 44.3301 24.3728 44.241L24.0669 43.7249ZM27.5927 44.1278L27.5915 44.4278H27.5927V44.1278ZM26.3313 43.767L26.1624 44.015L26.1631 44.0154L26.3313 43.767ZM25.5217 42.7301L25.2445 42.8449L25.2449 42.8459L25.5217 42.7301ZM25.2433 41.0966L25.5433 41.0975V41.0966H25.2433ZM25.5245 39.4744L25.2483 39.3574L25.2479 39.3584L25.5245 39.4744ZM26.3342 38.4545L26.5003 38.7044L26.5006 38.7042L26.3342 38.4545ZM28.8484 38.4545L28.6813 38.7037L28.682 38.7042L28.8484 38.4545ZM29.6609 39.4773L29.3846 39.5943L29.3848 39.5947L29.6609 39.4773ZM29.9421 41.0966L29.6421 41.0957V41.0966H29.9421ZM29.658 42.733L29.3813 42.6172L29.3809 42.6181L29.658 42.733ZM28.8512 43.7699L29.0201 44.0178L29.0201 44.0178L28.8512 43.7699ZM28.391 42.6051L28.649 42.7582L28.649 42.7582L28.391 42.6051ZM28.6864 41.0966L28.3864 41.0966L28.3864 41.0974L28.6864 41.0966ZM28.5501 39.9943L28.263 40.0814L28.2635 40.0831L28.5501 39.9943ZM28.1694 39.3324L27.9678 39.5546L27.9691 39.5558L28.1694 39.3324ZM26.7972 39.608L26.54 39.4536L26.54 39.4536L26.7972 39.608ZM26.4961 41.0966L26.1961 41.0957V41.0966H26.4961ZM26.6296 42.2159L26.3421 42.3014L26.3427 42.3036L26.6296 42.2159ZM27.0131 42.8864L26.8115 43.1085L26.8129 43.1097L27.0131 42.8864ZM27.5938 43.8278C27.1557 43.8261 26.7955 43.7191 26.4996 43.5187L26.1631 44.0154C26.5717 44.2922 27.0524 44.4257 27.5915 44.4278L27.5938 43.8278ZM26.5002 43.5191C26.205 43.318 25.969 43.022 25.7984 42.6143L25.2449 42.8459C25.4531 43.3435 25.7569 43.7388 26.1624 44.015L26.5002 43.5191ZM25.7988 42.6153C25.6303 42.2085 25.5414 41.7055 25.5433 41.0975L24.9433 41.0957C24.9413 41.7604 25.038 42.3464 25.2445 42.8449L25.7988 42.6153ZM25.5433 41.0966C25.5433 40.4903 25.633 39.9913 25.8011 39.5905L25.2479 39.3584C25.041 39.8516 24.9433 40.434 24.9433 41.0966H25.5433ZM25.8007 39.5915C25.9708 39.1901 26.206 38.9 26.5003 38.7044L26.1681 38.2047C25.7616 38.475 25.457 38.8649 25.2483 39.3574L25.8007 39.5915ZM26.5006 38.7042C26.7965 38.5069 27.1561 38.4023 27.5927 38.4023V37.8023C27.0558 37.8023 26.5764 37.9325 26.1678 38.2049L26.5006 38.7042ZM27.5927 38.4023C28.0294 38.4023 28.3876 38.5069 28.6813 38.7037L29.0154 38.2053C28.6083 37.9325 28.1295 37.8023 27.5927 37.8023V38.4023ZM28.682 38.7042C28.9786 38.9019 29.2147 39.1932 29.3846 39.5943L29.9371 39.3602C29.7283 38.8674 29.4227 38.4769 29.0148 38.2049L28.682 38.7042ZM29.3848 39.5947C29.5542 39.9927 29.6439 40.4898 29.6421 41.0957L30.2421 41.0975C30.2441 40.4344 30.1464 39.852 29.9369 39.3598L29.3848 39.5947ZM29.6421 41.0966C29.6421 41.7065 29.5515 42.2104 29.3813 42.6172L29.9348 42.8488C30.1434 42.3502 30.2421 41.7632 30.2421 41.0966H29.6421ZM29.3809 42.6181C29.2122 43.0254 28.9772 43.3211 28.6823 43.5219L29.0201 44.0178C29.4259 43.7414 29.7289 43.3458 29.9352 42.8478L29.3809 42.6181ZM28.6823 43.5219C28.389 43.7217 28.0305 43.8278 27.5927 43.8278V44.4278C28.1321 44.4278 28.6126 44.2954 29.0201 44.0178L28.6823 43.5219ZM27.5927 43.408C28.0516 43.408 28.4069 43.1662 28.649 42.7582L28.133 42.4521C27.9773 42.7145 27.8005 42.808 27.5927 42.808V43.408ZM28.649 42.7582C28.8889 42.3538 28.9884 41.7861 28.9864 41.0957L28.3864 41.0974C28.3883 41.748 28.2908 42.186 28.133 42.4521L28.649 42.7582ZM28.9864 41.0966C28.9864 40.6371 28.9394 40.2374 28.8366 39.9056L28.2635 40.0831C28.3426 40.3384 28.3864 40.6735 28.3864 41.0966H28.9864ZM28.8372 39.9073C28.7381 39.5806 28.5881 39.3049 28.3697 39.109L27.9691 39.5558C28.0802 39.6553 28.184 39.8209 28.263 40.0814L28.8372 39.9073ZM28.3709 39.1102C28.1524 38.912 27.8881 38.8108 27.5927 38.8108V39.4108C27.7404 39.4108 27.8606 39.4574 27.9678 39.5546L28.3709 39.1102ZM27.5927 38.8108C27.1367 38.8108 26.7824 39.0496 26.54 39.4536L27.0545 39.7623C27.2098 39.5035 27.3858 39.4108 27.5927 39.4108V38.8108ZM26.54 39.4536C26.2999 39.8537 26.198 40.4144 26.1961 41.0957L26.7961 41.0975C26.7979 40.4568 26.8968 40.0251 27.0545 39.7623L26.54 39.4536ZM26.1961 41.0966C26.1961 41.5612 26.2421 41.9653 26.3421 42.3014L26.9172 42.1304C26.8391 41.868 26.7961 41.526 26.7961 41.0966H26.1961ZM26.3427 42.3036C26.4434 42.6331 26.5939 42.9109 26.8115 43.1085L27.2148 42.6643C27.1028 42.5626 26.9976 42.3934 26.9165 42.1282L26.3427 42.3036ZM26.8129 43.1097C27.0328 43.3069 27.2973 43.408 27.5927 43.408V42.808C27.4449 42.808 27.3231 42.7613 27.2134 42.663L26.8129 43.1097Z" fill="black" mask="url(#path-6-outside-1_39_7)"/>
</g>
<defs>
<clipPath id="clip0_39_7">
<rect width="48" height="48" fill="white"/>
</clipPath>
</defs>
</svg>
